<svg xmlns="http://www.w3.org/2000/svg" viewBox="0 0 182.01 100.32">
  <title>uav</title>
  <path style="fill:#fff;stroke:#2d3032;stroke-miterlimit:10;stroke-width:5px;"
        d="M0,54.48V51a19.48,19.48,0,0,0,.09-3.43c0-3.46,2-5.44,5.43-5.49C13.35,42,21.18,42,29,41.85c6-.12,12,.08,18-.17s11.76.05,17.65-.19c5-.21,10-.07,15-.16,1.45,0,1.79-.37,1.82-1.84a119.68,119.68,0,0,0-.65-14.24c-.58-5.59-.72-11.23.8-16.76a15.31,15.31,0,0,1,2.3-4.92A7.5,7.5,0,0,1,89.76,0h2.69c4.82.6,6.55,4.26,7.88,8.17a27.47,27.47,0,0,1,1.23,8.6,102,102,0,0,1-.84,13.66,70,70,0,0,0-.08,9.58c0,.94.47,1.28,1.53,1.31,2,0,4.09,0,6.14,0,8.05.06,16.11.12,24.15.26,5.88.1,11.76-.08,17.63.16s12,0,18,.2c2.94.11,5.88.1,8.81.16a5,5,0,0,1,5,5.09,18.26,18.26,0,0,0,.09,3.24v4.22c-.16.23-.07.5-.1.74a3.69,3.69,0,0,1-3.47,3.35c-3.18.26-6.38.26-9.56.41-4.59.21-9.19.26-13.77.55-1.79.11-3.58.12-5.37.16-2.71.07-5.42.18-8.13.28-4.18.16-8.36.21-12.53.51-1.81.13-3.64.12-5.45.17-2.74.07-5.49.18-8.23.29-4.46.18-8.93.22-13.39.55-1,.08-1.4.42-1.41,1.44q-.06,6,0,12.08c0,1,.4,1.36,1.42,1.42,1.79.1,3.56.26,5.36.21,3.32-.1,6.63.24,10,.22a5.69,5.69,0,0,1,5.48,5.5c.06,1.4.09,2.81.18,4.21.21,3.28-1.3,5.13-4.54,5.63-6.16.94-12.33,1.77-18.49,2.67a4.74,4.74,0,0,0-1.93.51c-.26.17-.6.37-.51.74s.47.26.74.28.7,0,1.05.06a.81.81,0,0,1,.8.82s0,0,0,.07a.8.8,0,0,1-.7.89h-.08a19,19,0,0,1-2.49.05,3,3,0,0,0-2.28.81c-.86.82-2,.82-3.07,1h-1a5.83,5.83,0,0,1-3.58-1.4,2.32,2.32,0,0,0-1.64-.42c-.83,0-1.66,0-2.49,0-.54,0-.91-.26-.93-.87s.35-.91.94-1c.41,0,.83,0,1.25,0,.19,0,.41,0,.47-.26s-.1-.36-.23-.5a2.89,2.89,0,0,0-1.84-.72l-9.87-1.41c-3.07-.44-6.14-.84-9.21-1.33A4.82,4.82,0,0,1,59,86.68c.12-1.25.14-2.49.15-3.73A5.73,5.73,0,0,1,65.1,77c4,0,8-.33,12.07-.21.89,0,1.77-.18,2.67-.2,1.17,0,1.53-.4,1.55-1.59,0-1.92,0-3.84,0-5.75V63.51c0-1.49-.32-1.77-1.79-1.86-3.54-.21-7.08-.27-10.62-.41l-10.62-.39c-3.41-.13-6.83-.23-10.23-.38-5.29-.22-10.59-.4-15.88-.58l-10.14-.38c-5.33-.21-10.65-.44-16-.58-.89,0-1.79-.13-2.67-.21A3.6,3.6,0,0,1,.14,55.59,2.72,2.72,0,0,0,0,54.48Z"/>
</svg>
